<?xml version="1.0" standalone="no"?>
<!DOCTYPE svg PUBLIC "-//W3C//DTD SVG 1.1//EN" "http://www.w3.org/Graphics/SVG/1.1/DTD/svg11.dtd">
<svg xmlns="http://www.w3.org/2000/svg" width="485" height="485" viewBox="0 0 485 485" fill="none">
<path fill-rule="evenodd" clip-rule="evenodd" d="M239.899 119.697C240.628 118.197 242.765 118.196 243.496 119.695L269.189 172.42L252.881 191.606L246.499 178.326C244.689 174.559 239.332 174.543 237.499 178.298L208.774 237.145L165.484 272.873L239.899 119.697Z" fill="#242746"/>
<path fill-rule="evenodd" clip-rule="evenodd" d="M317.058 274.261L317.955 273.825L292.508 221.545L291.735 221.92L291.715 221.878L270.776 231.849L270.729 231.753L269.828 232.186L290.058 274.263L317.058 274.261ZM270.776 231.849L271.5 231.967L270.938 232.186L270.527 231.967L270.776 231.849Z" fill="#242746"/>
<g filter="url(#filter0_d_105_419)">
<path fill-rule="evenodd" clip-rule="evenodd" d="M191.784 261.836L324.713 153.707C324.907 153.869 325.116 154.078 325.338 154.338C325.769 154.843 326.22 155.505 326.666 156.301C327.556 157.893 328.401 159.968 329.025 162.251C330.268 166.796 330.604 172.03 328.84 175.851L191.784 261.836Z" fill="#F25D23"/>
</g>
<g filter="url(#filter1_d_105_419)">
<path fill-rule="evenodd" clip-rule="evenodd" d="M217.665 231.607L282.951 155.817C283.141 155.943 283.355 156.104 283.594 156.303C284.058 156.691 284.584 157.196 285.144 157.8C286.265 159.007 287.494 160.57 288.624 162.28C290.874 165.685 292.664 169.571 292.502 172.343L217.665 231.607Z" fill="#F25D23"/>
</g>
<g filter="url(#filter2_d_105_419)">
<path fill-rule="evenodd" clip-rule="evenodd" d="M217.595 256.426L324.651 184.565C324.821 184.752 325.005 184.986 325.202 185.268C325.585 185.817 325.991 186.514 326.398 187.332C327.212 188.968 328.007 191.036 328.626 193.249C329.859 197.656 330.359 202.508 329.037 205.642L217.595 256.426Z" fill="#F25D23"/>
</g>
<path fill-rule="evenodd" clip-rule="evenodd" d="M201 349.494C200.347 349.597 199.679 349.651 199 349.651H201V349.494Z" fill="#D9D9D9"/>
<path fill-rule="evenodd" clip-rule="evenodd" d="M387.502 324.985L387.502 324.854L387.501 324.77C387.501 324.798 387.502 324.826 387.502 324.854C387.502 324.898 387.502 324.942 387.502 324.985Z" fill="black"/>
<path d="M110 305.151V299.151C110 298.047 110.895 297.151 112 297.151H158C159.105 297.151 160 298.047 160 299.151V305.151C160 306.256 159.105 307.151 158 307.151H140V348.151C140 349.256 139.105 350.151 138 350.151H132C130.895 350.151 130 349.256 130 348.151V307.151H112C110.895 307.151 110 306.256 110 305.151Z" fill="#242746"/>
<path d="M159.5 299.151C159.5 298.323 158.828 297.651 158 297.651H112C111.172 297.651 110.5 298.323 110.5 299.151V305.151C110.5 305.98 111.172 306.651 112 306.651H130.5V348.151C130.5 348.98 131.172 349.651 132 349.651H138C138.828 349.651 139.5 348.98 139.5 348.151V306.651H158C158.828 306.651 159.5 305.98 159.5 305.151V299.151ZM160.5 305.151C160.5 306.532 159.381 307.651 158 307.651H140.5V348.151C140.5 349.532 139.381 350.651 138 350.651H132C130.619 350.651 129.5 349.532 129.5 348.151V307.651H112C110.619 307.651 109.5 306.532 109.5 305.151V299.151C109.5 297.77 110.619 296.651 112 296.651H158C159.381 296.651 160.5 297.77 160.5 299.151V305.151Z" fill="#242746"/>
<path d="M191.271 329.016L191.271 328.957H200.781C203.418 330.009 204.335 330.975 204.335 335.011C204.335 338.173 203.446 339.411 201.796 340.214L169.243 340.541C168.146 340.552 167.263 341.444 167.263 342.541V348.651C167.263 349.756 168.159 350.651 169.263 350.651H200.781C201.112 350.651 201.441 350.639 201.766 350.614C202.119 350.588 202.467 350.547 202.812 350.493C209.703 349.409 215 342.89 215 335.011C215 326.373 208.634 319.371 200.781 319.371H189.608L189.609 319.417L180.173 319.345C177.544 318.273 176.634 317.3 176.665 313.264C176.689 310.102 177.589 308.871 179.244 308.08L211.799 308.001C212.895 307.998 213.785 307.113 213.794 306.016L213.841 299.906C213.849 298.801 212.961 297.899 211.856 297.89L180.34 297.652C179.65 297.646 178.972 297.695 178.307 297.794C171.408 298.826 166.061 305.304 166.001 313.183C165.934 321.821 172.246 328.872 180.099 328.931L191.271 329.016Z" fill="#F66124"/>
<path d="M253.08 320.486L243.814 320.561H229.537C227.771 320.845 226.037 321.151 225.037 321.651C223.289 322.466 222.694 323.158 222.037 324.651V326.651V351.151H231.537V331.151L232.037 330.651H243.537H243.814L253.153 330.575C260.865 330.513 267.065 323.091 266.999 314C266.94 305.707 261.689 298.888 254.913 297.802C254.26 297.697 253.594 297.646 252.917 297.652L221.998 297.903C220.894 297.912 220.006 298.813 220.014 299.917L220.062 306.559C220.07 307.656 220.96 308.542 222.057 308.545L253.993 308.628C255.619 309.461 256.502 310.757 256.526 314.085C256.556 318.333 255.663 319.357 253.08 320.486Z" fill="#F66124"/>
<path fill-rule="evenodd" clip-rule="evenodd" d="M354.58 319.486L345.314 319.561H331.037C329.271 319.845 327.537 320.151 326.537 320.651C324.789 321.466 324.194 322.158 323.537 323.651V325.651V350.151H333.037V330.151L333.537 329.651H345.037H345.314L348.012 329.629L359 350.151H370.5L358.026 329.063C364.094 327.234 368.555 320.719 368.499 313C368.44 304.707 363.189 297.888 356.413 296.802C355.76 296.697 355.094 296.646 354.417 296.652L321.5 296.919L321.576 307.54L355.493 307.628C357.119 308.461 358.002 309.757 358.026 313.085C358.056 317.333 357.163 318.357 354.58 319.486Z" fill="#F66124"/>
<path d="M321.5 296.919L321.576 307.54L355.493 307.629C357.119 308.461 358.001 309.757 358.025 313.085C358.056 317.333 357.162 318.357 354.58 319.486L345.313 319.561H331.037C329.271 319.845 327.537 320.151 326.537 320.651C324.789 321.466 324.194 322.158 323.537 323.651V350.151H333.037V330.151L333.537 329.651H345.313L348.012 329.63L359 350.151H370.5L358.025 329.063C364.094 327.234 368.554 320.719 368.499 313C368.44 304.707 363.189 297.888 356.413 296.801C355.761 296.697 355.094 296.645 354.417 296.651L321.5 296.919ZM354.425 297.651C354.891 297.647 355.351 297.673 355.804 297.726L356.255 297.79C362.442 298.782 367.443 305.086 367.5 313.007C367.553 320.37 363.302 326.429 357.737 328.106L356.516 328.474L368.747 349.151H359.599L348.894 329.157L348.607 328.625L345.306 328.651H333.123L332.037 329.737V349.151H324.537V323.872C324.81 323.279 325.046 322.901 325.345 322.594C325.675 322.255 326.14 321.939 326.96 321.557L326.972 321.551L326.984 321.546C327.372 321.352 327.959 321.171 328.718 321.001C329.443 320.838 330.265 320.699 331.121 320.561H345.322L354.588 320.486L354.793 320.484L354.98 320.402C356.312 319.82 357.436 319.176 358.146 317.96C358.834 316.784 359.041 315.23 359.025 313.078C359.013 311.343 358.778 310.01 358.252 308.969C357.707 307.892 356.9 307.225 355.949 306.738L355.735 306.629H355.496L322.569 306.542L322.508 297.91L354.425 297.651Z" fill="#F66124"/>
<path fill-rule="evenodd" clip-rule="evenodd" d="M387 318.651V296.919H377V350.151H387L386.999 329.326L396.554 329.257C398.921 329.764 399.98 330.372 401.203 332.161L413.677 350.191L425.5 350.101L409.913 328.338C409.009 326.657 407.436 324.554 404.105 323.885C406.849 323.035 408.2 321.075 409 319.486L424 297.151H412.5L400.5 315.651C399.325 317.486 398.298 318.115 396 318.651H387Z" fill="#F66124"/>
<path d="M377 350.151H387L386.998 329.326L396.554 329.257C398.921 329.765 399.98 330.372 401.202 332.16L413.677 350.19L425.5 350.102L409.913 328.338C409.009 326.657 407.436 324.555 404.105 323.886C406.849 323.035 408.2 321.075 409 319.485L424 297.151H412.5L400.5 315.651C399.325 317.486 398.298 318.115 396 318.651H387V296.919H377V350.151ZM386 319.651H396.115L396.228 319.625C397.418 319.347 398.383 319.023 399.22 318.474C400.067 317.917 400.708 317.18 401.339 316.195L413.043 298.151H422.124L408.17 318.928L408.135 318.98L408.106 319.036C407.363 320.515 406.18 322.196 403.81 322.931L403.908 324.866C406.831 325.453 408.202 327.267 409.032 328.812L409.062 328.868L423.564 349.115L414.198 349.186L402.025 331.592C401.367 330.629 400.702 329.913 399.831 329.377C398.973 328.849 397.986 328.542 396.764 328.279L396.656 328.256L396.547 328.257L385.998 328.334L386 349.151H378V297.919H386V319.651Z" fill="#F66124"/>
<path d="M89.0002 306.651C89.4079 306.661 89.6325 307.281 90.0002 307.651L107.2 349.602L119.2 349.602L101.097 305.602C98.1364 300.472 96.4367 297.627 93.1999 296.779C89.2305 296.033 87.2342 296.028 84.1999 296.779C80.4997 297.607 78.6891 299.906 75.6999 305.779L58.0002 349.779L70.0007 349.779L87.5002 307.651C87.5002 307.651 88.3703 306.676 89.0002 306.651Z" fill="#242746"/>
<path d="M290 306.651C290.408 306.661 290.632 307.281 291 307.651L308.2 349.602L320.2 349.602L302.097 305.602C299.136 300.472 297.437 297.627 294.2 296.779C290.231 296.033 288.234 296.028 285.2 296.779C281.5 297.607 279.689 299.906 276.7 305.779L259 349.779L271.001 349.779L288.5 307.651C288.5 307.651 289.37 306.676 290 306.651Z" fill="#F66124"/>
<defs>
<filter id="filter0_d_105_419" x="186.784" y="152.707" width="148.277" height="118.129" filterUnits="userSpaceOnUse" color-interpolation-filters="sRGB">
<feFlood flood-opacity="0" result="BackgroundImageFix"/>
<feColorMatrix in="SourceAlpha" type="matrix" values="0 0 0 0 0 0 0 0 0 0 0 0 0 0 0 0 0 0 127 0" result="hardAlpha"/>
<feMorphology radius="1" operator="dilate" in="SourceAlpha" result="effect1_dropShadow_105_419"/>
<feOffset dy="4"/>
<feGaussianBlur stdDeviation="2"/>
<feComposite in2="hardAlpha" operator="out"/>
<feColorMatrix type="matrix" values="0 0 0 0 0 0 0 0 0 0 0 0 0 0 0 0 0 0 0.25 0"/>
<feBlend mode="normal" in2="BackgroundImageFix" result="effect1_dropShadow_105_419"/>
<feBlend mode="normal" in="SourceGraphic" in2="effect1_dropShadow_105_419" result="shape"/>
</filter>
<filter id="filter1_d_105_419" x="212.665" y="154.817" width="84.8467" height="85.7902" filterUnits="userSpaceOnUse" color-interpolation-filters="sRGB">
<feFlood flood-opacity="0" result="BackgroundImageFix"/>
<feColorMatrix in="SourceAlpha" type="matrix" values="0 0 0 0 0 0 0 0 0 0 0 0 0 0 0 0 0 0 127 0" result="hardAlpha"/>
<feMorphology radius="1" operator="dilate" in="SourceAlpha" result="effect1_dropShadow_105_419"/>
<feOffset dy="4"/>
<feGaussianBlur stdDeviation="2"/>
<feComposite in2="hardAlpha" operator="out"/>
<feColorMatrix type="matrix" values="0 0 0 0 0 0 0 0 0 0 0 0 0 0 0 0 0 0 0.25 0"/>
<feBlend mode="normal" in2="BackgroundImageFix" result="effect1_dropShadow_105_419"/>
<feBlend mode="normal" in="SourceGraphic" in2="effect1_dropShadow_105_419" result="shape"/>
</filter>
<filter id="filter2_d_105_419" x="212.595" y="183.565" width="122.224" height="81.8606" filterUnits="userSpaceOnUse" color-interpolation-filters="sRGB">
<feFlood flood-opacity="0" result="BackgroundImageFix"/>
<feColorMatrix in="SourceAlpha" type="matrix" values="0 0 0 0 0 0 0 0 0 0 0 0 0 0 0 0 0 0 127 0" result="hardAlpha"/>
<feMorphology radius="1" operator="dilate" in="SourceAlpha" result="effect1_dropShadow_105_419"/>
<feOffset dy="4"/>
<feGaussianBlur stdDeviation="2"/>
<feComposite in2="hardAlpha" operator="out"/>
<feColorMatrix type="matrix" values="0 0 0 0 0 0 0 0 0 0 0 0 0 0 0 0 0 0 0.25 0"/>
<feBlend mode="normal" in2="BackgroundImageFix" result="effect1_dropShadow_105_419"/>
<feBlend mode="normal" in="SourceGraphic" in2="effect1_dropShadow_105_419" result="shape"/>
</filter>
</defs>
</svg>