<?xml version="1.0" standalone="no"?>
<!DOCTYPE svg PUBLIC "-//W3C//DTD SVG 1.1//EN" "http://www.w3.org/Graphics/SVG/1.1/DTD/svg11.dtd">
<svg xmlns="http://www.w3.org/2000/svg" width="3145" height="1266" viewBox="0 0 3145 1266" fill="none">
<g filter="url(#filter0_d_109_97)">
<path fill-rule="evenodd" clip-rule="evenodd" d="M463.211 621.468L820.599 207.79C821.635 208.479 822.81 209.36 824.118 210.448C826.659 212.563 829.535 215.32 832.603 218.615C838.739 225.204 845.469 233.737 851.654 243.069C863.971 261.654 873.77 282.864 872.879 297.996L463.211 621.468Z" fill="#F25D23"/>
</g>
<path fill-rule="evenodd" clip-rule="evenodd" d="M371.984 1264.93C368.408 1265.49 364.754 1265.78 361.036 1265.78H371.984V1264.93Z" fill="#D9D9D9"/>
<path fill-rule="evenodd" clip-rule="evenodd" d="M1392.92 1131.15L1392.91 1130.44L1392.91 1129.97C1392.91 1130.13 1392.91 1130.28 1392.91 1130.44C1392.92 1130.67 1392.92 1130.91 1392.92 1131.15Z" fill="black"/>
<path fill-rule="evenodd" clip-rule="evenodd" d="M584.919 10.6454C588.909 2.45592 600.609 2.44889 604.609 10.6335L745.258 298.419L655.984 403.139L621.049 330.652C611.142 310.095 581.816 310.005 571.782 330.501L414.536 651.7L177.562 846.712L584.919 10.6454Z" fill="white"/>
<path fill-rule="evenodd" clip-rule="evenodd" d="M1007.3 854.287L1012.21 851.904L872.911 566.548L868.679 568.595L868.57 568.365L753.946 622.79L753.693 622.265L748.758 624.632L859.498 854.298L1007.3 854.287ZM753.946 622.79L757.91 623.435L754.834 624.632L752.586 623.435L753.946 622.79Z" fill="white"/>
<g filter="url(#filter1_d_109_97)">
<path fill-rule="evenodd" clip-rule="evenodd" d="M321.535 786.468L1049.21 196.277C1050.27 197.162 1051.42 198.302 1052.63 199.719C1054.99 202.474 1057.46 206.092 1059.9 210.436C1064.78 219.125 1069.4 230.451 1072.81 242.909C1079.62 267.717 1081.46 296.285 1071.8 317.14L321.535 786.468Z" fill="#F25D23"/>
</g>
<g filter="url(#filter2_d_109_97)">
<path fill-rule="evenodd" clip-rule="evenodd" d="M462.826 756.937L1048.87 364.707C1049.79 365.73 1050.8 367.004 1051.88 368.546C1053.98 371.542 1056.2 375.347 1058.43 379.812C1062.89 388.741 1067.24 400.028 1070.62 412.106C1077.37 436.159 1080.11 462.644 1072.88 479.752L462.826 756.937Z" fill="#F25D23"/>
</g>
<path d="M1699.46 604.513C1699.46 612.05 1693.33 618.159 1685.77 618.159H1589.98V839.216C1589.98 846.752 1583.85 852.862 1576.29 852.862H1543.45C1535.89 852.862 1529.76 846.752 1529.76 839.216V618.159H1433.96C1426.4 618.159 1420.28 612.05 1420.28 604.513V571.764C1420.28 564.228 1426.4 558.119 1433.96 558.119H1685.77C1693.33 558.119 1699.46 564.228 1699.46 571.764V604.513Z" fill="white"/>
<path d="M1867.91 734.772L1867.91 734.447H1919.97C1934.4 740.194 1939.43 745.463 1939.43 767.493C1939.43 784.753 1934.56 791.509 1925.53 795.896L1747.33 797.677C1741.32 797.737 1736.49 802.606 1736.49 808.593V841.945C1736.49 847.974 1741.39 852.861 1747.44 852.861H1919.97C1921.78 852.861 1923.58 852.793 1925.36 852.659C1927.29 852.514 1929.2 852.292 1931.09 851.997C1968.81 846.079 1997.81 810.5 1997.81 767.493C1997.81 720.346 1962.96 682.125 1919.97 682.125H1858.81L1858.81 682.379L1807.16 681.988C1792.77 676.133 1787.78 670.826 1787.95 648.796C1788.09 631.537 1793.01 624.818 1802.07 620.5L1980.28 620.066C1986.29 620.052 1991.16 615.22 1991.2 609.234L1991.46 575.883C1991.51 569.853 1986.64 564.928 1980.6 564.883L1808.07 563.578C1804.3 563.549 1800.58 563.816 1796.94 564.358C1759.18 569.991 1729.91 605.349 1729.58 648.355C1729.21 695.501 1763.77 733.984 1806.76 734.309L1867.91 734.772Z" fill="#F66124"/>
<path d="M2206.26 688.212L2155.53 688.623H2077.38C2067.71 690.175 2058.22 691.844 2052.74 694.573C2043.18 699.019 2039.92 702.8 2036.32 710.948V721.864V850.132C2036.32 853.147 2038.77 855.59 2041.79 855.59H2082.85C2085.87 855.59 2088.32 853.147 2088.32 850.132V746.426L2091.06 743.697H2154.01H2155.53L2206.65 743.283C2248.87 742.941 2282.81 702.435 2282.45 652.811C2282.13 607.545 2253.38 570.328 2216.29 564.399C2212.72 563.829 2209.07 563.548 2205.36 563.578L2036.11 564.95C2030.06 564.999 2025.2 569.919 2025.25 575.944L2025.51 612.198C2025.55 618.185 2030.42 623.02 2036.43 623.036L2211.25 623.492C2220.15 628.037 2224.99 635.109 2225.12 653.276C2225.28 676.463 2220.39 682.049 2206.26 688.212Z" fill="#F66124"/>
<path d="M2761.89 682.754L2711.17 683.165H2633.01C2623.34 684.717 2613.85 686.387 2608.38 689.116C2598.81 693.562 2595.55 697.342 2591.96 705.49V716.407V844.675C2591.96 847.689 2594.41 850.133 2597.43 850.133H2638.49C2641.51 850.133 2643.96 847.689 2643.96 844.675V740.969L2646.7 738.24H2709.65H2711.17L2725.93 738.12L2784.54 847.251C2785.49 849.025 2787.35 850.133 2789.36 850.133H2839.44C2843.68 850.133 2846.31 845.534 2844.15 841.896L2780.75 735.032C2813.97 725.047 2838.39 689.486 2838.09 647.353C2837.76 602.087 2809.01 564.87 2771.92 558.942C2768.35 558.371 2764.7 558.09 2761 558.121L2586.27 559.536C2583.25 559.561 2580.82 562.021 2580.84 565.034L2581.18 612.146C2581.21 615.139 2583.64 617.557 2586.64 617.564L2766.89 618.034C2775.79 622.58 2780.62 629.652 2780.75 647.818C2780.92 671.006 2776.03 676.591 2761.89 682.754Z" fill="#F66124"/>
<path d="M2884.62 844.674C2884.62 847.688 2887.07 850.132 2890.09 850.132H2933.88C2936.91 850.132 2939.36 847.688 2939.36 844.673L2939.35 736.464L2991.66 736.085C3004.61 738.857 3010.41 742.174 3017.1 751.932L3083.74 847.971C3084.77 849.456 3086.47 850.337 3088.29 850.323L3139.56 849.939C3143.99 849.906 3146.55 844.9 3143.97 841.303L3064.79 731.069C3059.84 721.892 3051.23 710.419 3033 706.769C3048.02 702.127 3055.41 691.428 3059.79 682.75L3136.18 569.348C3138.62 565.722 3136.01 560.847 3131.63 560.847H3081.92C3080.07 560.847 3078.34 561.783 3077.33 563.335L3013.26 661.824C3006.83 671.837 3001.21 675.27 2988.63 678.198H2939.36V565.037C2939.36 562.022 2936.91 559.578 2933.88 559.578H2890.09C2887.07 559.578 2884.62 562.022 2884.62 565.037V844.674Z" fill="#F66124"/>
<path d="M1313.53 612.7C1315.76 612.756 1316.99 616.141 1319 618.158L1411.76 843.745C1412.61 845.795 1414.61 847.133 1416.83 847.133L1470.68 847.134C1474.57 847.134 1477.22 843.191 1475.74 839.599L1379.75 606.973C1363.54 578.973 1354.24 563.443 1336.52 558.818C1314.79 554.747 1303.86 554.715 1287.25 558.818C1267 563.337 1257.08 575.882 1240.72 607.942L1146.85 840.608C1145.41 844.195 1148.05 848.103 1151.93 848.103L1205.87 848.103C1208.08 848.103 1210.08 846.775 1210.92 844.738L1305.32 618.158C1305.32 618.158 1310.08 612.834 1313.53 612.7Z" fill="white"/>
<path d="M2408.36 612.7C2410.59 612.756 2411.82 616.141 2413.84 618.158L2506.6 843.745C2507.44 845.795 2509.44 847.133 2511.66 847.133L2565.51 847.134C2569.41 847.134 2572.06 843.191 2570.57 839.599L2474.58 606.973C2458.38 578.973 2449.07 563.443 2431.35 558.818C2409.62 554.747 2398.7 554.715 2382.08 558.818C2361.83 563.337 2351.92 575.882 2335.55 607.942L2241.69 840.608C2240.24 844.195 2242.89 848.103 2246.77 848.103L2300.7 848.103C2302.91 848.103 2304.91 846.775 2305.76 844.738L2400.15 618.158C2400.15 618.158 2404.91 612.834 2408.36 612.7Z" fill="#F66124"/>
<defs>
<filter id="filter0_d_109_97" x="459.21" y="207.79" width="417.725" height="421.678" filterUnits="userSpaceOnUse" color-interpolation-filters="sRGB">
<feFlood flood-opacity="0" result="BackgroundImageFix"/>
<feColorMatrix in="SourceAlpha" type="matrix" values="0 0 0 0 0 0 0 0 0 0 0 0 0 0 0 0 0 0 127 0" result="hardAlpha"/>
<feOffset dy="4"/>
<feGaussianBlur stdDeviation="2"/>
<feComposite in2="hardAlpha" operator="out"/>
<feColorMatrix type="matrix" values="0 0 0 0 0 0 0 0 0 0 0 0 0 0 0 0 0 0 0.25 0"/>
<feBlend mode="normal" in2="BackgroundImageFix" result="effect1_dropShadow_109_97"/>
<feBlend mode="normal" in="SourceGraphic" in2="effect1_dropShadow_109_97" result="shape"/>
</filter>
<filter id="filter1_d_109_97" x="317.535" y="196.277" width="764.95" height="598.191" filterUnits="userSpaceOnUse" color-interpolation-filters="sRGB">
<feFlood flood-opacity="0" result="BackgroundImageFix"/>
<feColorMatrix in="SourceAlpha" type="matrix" values="0 0 0 0 0 0 0 0 0 0 0 0 0 0 0 0 0 0 127 0" result="hardAlpha"/>
<feOffset dy="4"/>
<feGaussianBlur stdDeviation="2"/>
<feComposite in2="hardAlpha" operator="out"/>
<feColorMatrix type="matrix" values="0 0 0 0 0 0 0 0 0 0 0 0 0 0 0 0 0 0 0.25 0"/>
<feBlend mode="normal" in2="BackgroundImageFix" result="effect1_dropShadow_109_97"/>
<feBlend mode="normal" in="SourceGraphic" in2="effect1_dropShadow_109_97" result="shape"/>
</filter>
<filter id="filter2_d_109_97" x="458.826" y="364.707" width="622.332" height="400.23" filterUnits="userSpaceOnUse" color-interpolation-filters="sRGB">
<feFlood flood-opacity="0" result="BackgroundImageFix"/>
<feColorMatrix in="SourceAlpha" type="matrix" values="0 0 0 0 0 0 0 0 0 0 0 0 0 0 0 0 0 0 127 0" result="hardAlpha"/>
<feOffset dy="4"/>
<feGaussianBlur stdDeviation="2"/>
<feComposite in2="hardAlpha" operator="out"/>
<feColorMatrix type="matrix" values="0 0 0 0 0 0 0 0 0 0 0 0 0 0 0 0 0 0 0.25 0"/>
<feBlend mode="normal" in2="BackgroundImageFix" result="effect1_dropShadow_109_97"/>
<feBlend mode="normal" in="SourceGraphic" in2="effect1_dropShadow_109_97" result="shape"/>
</filter>
</defs>
</svg>